<svg width="24" height="24" viewBox="0 0 24 24" fill="none" xmlns="http://www.w3.org/2000/svg">
<g id="ic:outline-share-location">
<path id="Vector" d="M13.02 19.93V21.95C15.03 21.75 16.86 20.95 18.34 19.74L16.92 18.31C15.7901 19.1921 14.4424 19.7519 13.02 19.93ZM4.03003 12C4.03003 7.95 7.06003 4.59 10.98 4.07V2.05C5.95003 2.58 2.03003 6.84 2.03003 12C2.03003 17.16 5.95003 21.42 10.98 21.95V19.93C7.06003 19.41 4.03003 16.05 4.03003 12ZM19.95 11H21.97C21.77 8.99 20.97 7.16 19.76 5.68L18.33 7.11C19.19 8.21 19.77 9.54 19.95 11ZM18.34 4.26C16.8225 3.01646 14.972 2.24777 13.02 2.05V4.07C14.48 4.25 15.81 4.83 16.92 5.69L18.34 4.26ZM18.33 16.9L19.76 18.32C21.0052 16.8034 21.7741 14.9525 21.97 13H19.95C19.7719 14.4224 19.2121 15.7701 18.33 16.9Z" fill="black"/>
<path id="Vector_2" d="M16 11.1C16 8.61 14.1 7 12 7C9.9 7 8 8.61 8 11.1C8 12.76 9.33 14.73 12 17C14.67 14.73 16 12.76 16 11.1ZM12 12C11.7242 11.9881 11.4637 11.8701 11.2728 11.6708C11.0818 11.4714 10.9753 11.206 10.9753 10.93C10.9753 10.654 11.0818 10.3886 11.2728 10.1892C11.4637 9.98987 11.7242 9.87193 12 9.86C12.2758 9.87193 12.5363 9.98987 12.7272 10.1892C12.9182 10.3886 13.0247 10.654 13.0247 10.93C13.0247 11.206 12.9182 11.4714 12.7272 11.6708C12.5363 11.8701 12.2758 11.9881 12 12Z" fill="black"/>
</g>
</svg>
