<svg width="24" height="24" viewBox="0 0 24 24" fill="none" xmlns="http://www.w3.org/2000/svg">
<g id="ic:round-password">
<path id="Vector" d="M3 17H21C21.55 17 22 17.45 22 18C22 18.55 21.55 19 21 19H3C2.45 19 2 18.55 2 18C2 17.45 2.45 17 3 17ZM2.5 12.57C2.86 12.78 3.32 12.65 3.53 12.29L4 11.47L4.48 12.3C4.69 12.66 5.15 12.78 5.51 12.58C5.87 12.37 5.99 11.92 5.79 11.56L5.3 10.72H6.25C6.66 10.72 7 10.38 7 9.97001C7 9.56001 6.66 9.22001 6.25 9.22001H5.3L5.77 8.40001C5.98 8.04001 5.86 7.58001 5.5 7.37001C5.32574 7.27301 5.12045 7.248 4.92799 7.30031C4.73554 7.35263 4.57117 7.47814 4.47 7.65001L4 8.47001L3.53 7.65001C3.42883 7.47814 3.26446 7.35263 3.07201 7.30031C2.87955 7.248 2.67426 7.27301 2.5 7.37001C2.14 7.58001 2.02 8.04001 2.23 8.40001L2.7 9.22001H1.75C1.34 9.22001 1 9.56001 1 9.97001C1 10.38 1.34 10.72 1.75 10.72H2.7L2.22 11.55C2.02 11.91 2.14 12.37 2.5 12.57ZM10.5 12.57C10.86 12.78 11.32 12.65 11.53 12.29L12 11.47L12.48 12.3C12.69 12.66 13.15 12.78 13.51 12.58C13.87 12.37 13.99 11.92 13.79 11.56L13.31 10.73H14.26C14.67 10.73 15.01 10.39 15.01 9.98001C15.01 9.57001 14.67 9.23001 14.26 9.23001H13.3L13.77 8.41001C13.8689 8.23718 13.896 8.03244 13.8455 7.83983C13.795 7.64721 13.671 7.4821 13.5 7.38001C13.4153 7.33076 13.3217 7.29867 13.2246 7.28558C13.1275 7.27249 13.0288 7.27866 12.9341 7.30373C12.8394 7.3288 12.7505 7.37229 12.6726 7.4317C12.5947 7.49112 12.5292 7.5653 12.48 7.65001L12 8.47001L11.53 7.65001C11.4811 7.56491 11.4159 7.49034 11.338 7.43062C11.2602 7.3709 11.1712 7.32722 11.0764 7.30211C10.9815 7.277 10.8826 7.27096 10.7854 7.28433C10.6882 7.2977 10.5946 7.33022 10.51 7.38001C10.15 7.59001 10.03 8.05001 10.24 8.41001L10.71 9.23001H9.75C9.65198 9.22869 9.55468 9.24685 9.46374 9.28345C9.3728 9.32004 9.29004 9.37434 9.22026 9.44319C9.15049 9.51203 9.09508 9.59406 9.05727 9.6845C9.01946 9.77494 8.99999 9.87199 9 9.97001C9 10.38 9.34 10.72 9.75 10.72H10.7L10.22 11.55C10.02 11.91 10.14 12.37 10.5 12.57ZM23 9.97001C23 9.56001 22.66 9.22001 22.25 9.22001H21.3L21.77 8.40001C21.8689 8.22718 21.896 8.02244 21.8455 7.82983C21.795 7.63721 21.671 7.4721 21.5 7.37001C21.4153 7.32076 21.3217 7.28867 21.2246 7.27558C21.1275 7.26249 21.0288 7.26866 20.9341 7.29373C20.8394 7.3188 20.7505 7.36229 20.6726 7.4217C20.5947 7.48112 20.5292 7.5553 20.48 7.64001L20 8.47001L19.53 7.65001C19.4811 7.56491 19.4159 7.49034 19.338 7.43062C19.2602 7.3709 19.1712 7.32722 19.0764 7.30211C18.9815 7.277 18.8826 7.27096 18.7854 7.28433C18.6882 7.2977 18.5946 7.33022 18.51 7.38001C18.15 7.59001 18.03 8.05001 18.24 8.41001L18.71 9.23001H17.76C17.6613 9.22775 17.5631 9.2452 17.4711 9.28134C17.3792 9.31748 17.2954 9.37158 17.2247 9.44048C17.1539 9.50938 17.0976 9.5917 17.059 9.68262C17.0204 9.77355 17.0004 9.87125 17 9.97001C17 10.38 17.34 10.72 17.75 10.72H18.7L18.22 11.55C18.1703 11.6351 18.1382 11.7293 18.1254 11.8269C18.1126 11.9246 18.1194 12.0239 18.1455 12.1189C18.1716 12.2139 18.2164 12.3027 18.2773 12.3802C18.3381 12.4577 18.4139 12.5222 18.5 12.57C18.86 12.78 19.32 12.65 19.53 12.29L20 11.47L20.48 12.3C20.69 12.66 21.15 12.78 21.51 12.58C21.87 12.37 21.99 11.92 21.79 11.56L21.31 10.73H22.26C22.66 10.72 23 10.38 23 9.97001Z" fill="black"/>
</g>
</svg>
